<svg width="102" height="12" viewBox="0 0 102 12" fill="none" xmlns="http://www.w3.org/2000/svg">
<path d="M19.2522 11.6137V0.484739C19.2522 0.38156 19.3455 0.297577 19.4602 0.297577H23.3794C24.3765 0.297577 25.1923 0.446348 25.8269 0.741489C26.4587 1.03663 26.928 1.44215 27.2319 1.95805C27.5359 2.47394 27.6878 3.04263 27.6878 3.6665C27.6878 4.38876 27.4719 5.04142 27.04 5.62211C26.6081 6.20279 25.9362 6.61311 25.0217 6.85546L27.7225 11.6401C27.7652 11.7145 27.7038 11.8033 27.6105 11.8033H26.1868C26.0748 11.8033 25.9762 11.7457 25.9255 11.6569L23.4114 7.05462H23.3021H20.7826V11.6161C20.7826 11.7193 20.6892 11.8033 20.5746 11.8033H19.4548C19.3428 11.8009 19.2522 11.7169 19.2522 11.6137ZM20.7852 5.96764H23.2674C24.2539 5.96764 24.971 5.75409 25.4216 5.32697C25.8722 4.89986 26.0962 4.35277 26.0962 3.6833C26.0962 3.00424 25.8749 2.46434 25.4296 2.06363C24.9844 1.66291 24.2592 1.46375 23.2487 1.46375H20.7826V5.96764H20.7852Z" fill="#FFC600"/>
<path d="M29.1353 11.6257L33.713 0.443951C33.7503 0.355169 33.8436 0.297577 33.9476 0.297577H35.2247C35.3287 0.297577 35.422 0.355169 35.4593 0.443951L40.0211 11.6257C40.0557 11.7121 39.9864 11.8009 39.8851 11.8009H38.672C38.5494 11.8009 38.44 11.7313 38.3974 11.6281L37.2963 8.84466H31.8547L30.7376 11.6305C30.6949 11.7337 30.5856 11.8033 30.4656 11.8033H29.2712C29.1699 11.8009 29.1006 11.7097 29.1353 11.6257ZM32.3133 7.72649H36.8404L34.5768 2.03963L32.3133 7.72649Z" fill="#FFC600"/>
<path d="M41.832 11.6137V0.484739C41.832 0.38156 41.9253 0.297577 42.04 0.297577H49.4038C49.5185 0.297577 49.6118 0.38156 49.6118 0.484739V1.24539C49.6118 1.34857 49.5185 1.43255 49.4038 1.43255H43.3677V5.44214H48.4734C48.588 5.44214 48.6813 5.52613 48.6813 5.62931V6.37316C48.6813 6.47634 48.588 6.56032 48.4734 6.56032H43.3677V11.6161C43.3677 11.7193 43.2744 11.8033 43.1598 11.8033H42.04C41.9253 11.8009 41.832 11.7169 41.832 11.6137Z" fill="#FFC600"/>
<path d="M51.4856 11.6137V0.484739C51.4856 0.38156 51.5789 0.297577 51.6936 0.297577H59.0574C59.172 0.297577 59.2654 0.38156 59.2654 0.484739V1.24539C59.2654 1.34857 59.172 1.43255 59.0574 1.43255H53.0213V5.44214H58.1269C58.2416 5.44214 58.3349 5.52613 58.3349 5.62931V6.37316C58.3349 6.47634 58.2416 6.56032 58.1269 6.56032H53.0213V11.6161C53.0213 11.7193 52.928 11.8033 52.8133 11.8033H51.6936C51.5789 11.8009 51.4856 11.7169 51.4856 11.6137Z" fill="#FFC600"/>
<path d="M61.1394 11.6137V0.484739C61.1394 0.38156 61.2327 0.297577 61.3474 0.297577H68.8392C68.9538 0.297577 69.0471 0.38156 69.0471 0.484739V1.24539C69.0471 1.34857 68.9538 1.43255 68.8392 1.43255H62.6751V5.44214H68.2926C68.4073 5.44214 68.5006 5.52613 68.5006 5.62931V6.37316C68.5006 6.47634 68.4073 6.56032 68.2926 6.56032H62.6751V10.6683H68.8392C68.9538 10.6683 69.0471 10.7523 69.0471 10.8555V11.6161C69.0471 11.7193 68.9538 11.8033 68.8392 11.8033H61.3474C61.2327 11.8009 61.1394 11.7169 61.1394 11.6137Z" fill="#FFC600"/>
<path d="M14.5706 11.6137V0.484739C14.5706 0.38156 14.6639 0.297577 14.7785 0.297577H15.8983C16.0129 0.297577 16.1062 0.38156 16.1062 0.484739V11.6137C16.1062 11.7169 16.0129 11.8009 15.8983 11.8009H14.7785C14.6612 11.8009 14.5706 11.7169 14.5706 11.6137Z" fill="#FFC600"/>
<path d="M6.628 5.62687V6.33713C6.628 6.44031 6.72132 6.52429 6.83596 6.52429H10.3179C10.3179 8.71985 9.3048 9.65326 8.66493 10.0588C8.02505 10.4643 7.20655 10.6659 6.20942 10.6659C5.27094 10.6659 4.45777 10.4763 3.76191 10.0996C3.06872 9.72045 2.53016 9.18295 2.14624 8.47989C1.76231 7.77924 1.57035 6.9394 1.57035 5.9652C1.57035 4.99099 1.76231 4.15117 2.14624 3.45051C2.53016 2.74985 3.06872 2.20996 3.76191 1.83083C4.45511 1.45171 5.27094 1.26454 6.20942 1.26454C7.20655 1.26454 8.02505 1.4685 8.66493 1.87162C9.25148 2.24355 9.64073 2.73545 9.83269 3.34493C9.86469 3.44331 9.96067 3.51529 10.0753 3.51529H11.4137C11.5364 3.51529 11.627 3.41211 11.595 3.30654C11.2911 2.31074 10.6939 1.52129 9.8007 0.93581C8.84622 0.311936 7.64913 0 6.21209 0C4.94567 0 3.84723 0.251948 2.91675 0.755847C1.98627 1.25975 1.26641 1.96041 0.762514 2.86023C0.253282 3.76005 0 4.79424 0 5.9676C0 7.14096 0.253282 8.17516 0.757181 9.07258C1.26108 9.97 1.98094 10.6731 2.91142 11.177C3.8419 11.6808 4.94034 11.9328 6.20675 11.9328C7.6438 11.9328 8.83823 11.6209 9.79537 10.997C10.7498 10.3731 11.8829 9.05818 11.8856 6.52669V5.62927C11.8856 5.52609 11.7923 5.4421 11.6777 5.4421H6.83596C6.72132 5.4421 6.628 5.52369 6.628 5.62687Z" fill="#FFC600"/>
<path d="M72.2658 8.39348H73.6096C73.8549 8.39348 74.0628 8.54945 74.1161 8.76781C74.3054 9.54285 75.044 10.0563 76.2091 10.0563C77.5501 10.0563 78.31 9.35569 78.31 8.39348C78.31 7.3257 77.5901 6.66103 76.0144 6.66103H74.9906C74.7613 6.66103 74.5747 6.49307 74.5747 6.28671V5.16133C74.5747 4.95497 74.7613 4.78701 74.9906 4.78701H76.0144C77.3368 4.78701 77.8807 4.28071 77.8807 3.40488C77.8807 2.63464 77.2968 2.03956 76.2091 2.03956C75.2972 2.03956 74.7533 2.44508 74.5774 3.07375C74.5187 3.27771 74.3134 3.42168 74.0761 3.42168H72.7058C72.4605 3.42168 72.2658 3.22972 72.2925 3.01136C72.5298 1.10614 74.0655 0.0959473 76.249 0.0959473C78.6219 0.0959473 80.2163 1.3389 80.2163 3.24652C80.2163 4.41988 79.6537 5.24051 78.6032 5.69642V5.73242C79.9256 6.18833 80.6642 7.11454 80.6642 8.51585C80.6642 10.6514 78.8165 11.9976 76.2517 11.9976C73.8389 11.9976 72.0605 10.8362 71.8579 8.7918C71.8313 8.57825 72.0259 8.39348 72.2658 8.39348Z" fill="#FFC600"/>
<path d="M81.9099 8.09361C81.8406 6.45954 82.6031 5.34616 83.1097 4.61431L85.8398 0.679093C85.9918 0.460737 86.2584 0.328766 86.5437 0.328766H87.9647C88.2607 0.328766 88.4393 0.623907 88.2793 0.847063L85.8505 4.23038C86.1997 4.07202 86.629 3.94964 87.1915 3.94964C89.3884 3.94964 90.9641 5.69889 90.9641 7.92084C90.9641 10.318 89.1271 11.9736 86.4957 11.9976C84.0615 12.0216 82.0006 10.282 81.9099 8.09361ZM88.6126 7.86805C88.6126 6.55552 87.7754 5.71569 86.4344 5.71569C85.0933 5.71569 84.2561 6.55552 84.2561 7.86805C84.2561 9.23338 85.0933 10.0564 86.4344 10.0564C87.7781 10.0564 88.6126 9.23338 88.6126 7.86805Z" fill="#FFC600"/>
<path d="M92.4431 7.90399V4.19434C92.4431 1.70844 94.3094 0.0983582 96.9729 0.0983582C99.6363 0.0983582 101.503 1.70844 101.503 4.19434V7.90399C101.503 10.3899 99.6363 12 96.9729 12C94.3094 12 92.4431 10.3899 92.4431 7.90399ZM99.1911 7.90399V4.19434C99.1911 2.84581 98.3539 2.04197 96.9755 2.04197C95.5945 2.04197 94.76 2.84581 94.76 4.19434V7.90399C94.76 9.25252 95.5971 10.0564 96.9755 10.0564C98.3539 10.0564 99.1911 9.25252 99.1911 7.90399Z" fill="#FFC600"/>
</svg>
